<svg id="Layer_1" data-name="Layer 1" xmlns="http://www.w3.org/2000/svg" viewBox="0 0 1400 800"><defs><style>.cls-1{fill:#231f20;}</style></defs><polygon class="cls-1" points="475.64 363.71 472.16 382.83 504.5 382.83 486.42 485.06 510.93 485.06 529.01 382.83 561.18 382.83 564.66 363.71 475.64 363.71"/><path class="cls-1" d="M600,405.78l3-17H578.39l-17,96.32h24.52l9-51.47q3-11.3,9.47-16t17.3-4.7h6.44l4.52-25.55a35.33,35.33,0,0,0-18.09,4.86A47.64,47.64,0,0,0,600,405.78Z"/><path class="cls-1" d="M720.78,397.35Q710,387.18,691.57,387.18a57.16,57.16,0,0,0-26.25,6.09,55.08,55.08,0,0,0-20.08,17.38,63,63,0,0,0-10.69,26.26,60.79,60.79,0,0,0-1,10.95q0,17.91,11.13,28.34t29.56,10.43a53.88,53.88,0,0,0,30.51-8.95,54.73,54.73,0,0,0,19.91-22.87H698.35a26.08,26.08,0,0,1-8.6,8.44,23.9,23.9,0,0,1-12.61,3.21q-8.68,0-14-5.13t-5.31-14.17a25.34,25.34,0,0,1,.18-3.47h70.41a84.89,84.89,0,0,0,2.26-9,50.82,50.82,0,0,0,.87-9.91Q731.56,407.52,720.78,397.35Zm-14.25,31.56h-45.9A30.81,30.81,0,0,1,670.88,413a25.82,25.82,0,0,1,16.52-5.82q8.7,0,14.08,4.69t5.39,13A36.62,36.62,0,0,1,706.53,428.91Z"/><path class="cls-1" d="M834.05,395.44q-8.61-8.08-23.56-8.08a42.13,42.13,0,0,0-17,3.56,43.78,43.78,0,0,0-14.08,9.65l2.09-11.82H756.94l-17,96.32h24.51L774,430.65q2.26-11,9.13-16.78a24.83,24.83,0,0,1,16.6-5.83q8.52,0,13.13,4.53t4.61,13.21a37.73,37.73,0,0,1-.52,6.08l-9.39,53.21H831.7l10.09-56.51a53.47,53.47,0,0,0,.87-10.08Q842.66,403.53,834.05,395.44Z"/><path class="cls-1" d="M939.5,402.13a27.57,27.57,0,0,0-11.65-10.86,36.54,36.54,0,0,0-17.21-4.09,48.67,48.67,0,0,0-23.56,6.09,54.09,54.09,0,0,0-19,17.38,68.44,68.44,0,0,0-11.39,37.21,43.23,43.23,0,0,0,4.61,20.43,33.07,33.07,0,0,0,12.86,13.56,36.94,36.94,0,0,0,18.87,4.78,44.56,44.56,0,0,0,19.73-4.35,42,42,0,0,0,14.69-11.47l-2.61,14.26h24.52l22.77-128.66H947.67Zm-6.09,34.78A36.77,36.77,0,0,1,927.24,452a31.69,31.69,0,0,1-11,9.82A27.9,27.9,0,0,1,903,465.24a20.11,20.11,0,0,1-15-6q-5.91-6-5.91-16.43a41.15,41.15,0,0,1,.52-6.26,35.5,35.5,0,0,1,6.26-15,32.22,32.22,0,0,1,11-9.65,28.12,28.12,0,0,1,13.13-3.3,20.91,20.91,0,0,1,15,5.73q6,5.74,6,16A49.76,49.76,0,0,1,933.41,436.91Z"/><path class="cls-1" d="M1056.07,392.31a46.13,46.13,0,0,0-22-5.13,58.63,58.63,0,0,0-30,7.83,57.1,57.1,0,0,0-21.21,21.29,58.83,58.83,0,0,0-7.73,29.82,42.26,42.26,0,0,0,5.21,21.21A35.85,35.85,0,0,0,995,481.59a45.77,45.77,0,0,0,21.82,5,60.1,60.1,0,0,0,30.17-7.74,56.84,56.84,0,0,0,21.47-21.12,58.1,58.1,0,0,0,7.82-29.9,41.76,41.76,0,0,0-5.3-21.22A36.83,36.83,0,0,0,1056.07,392.31Zm-9,55A34.14,34.14,0,0,1,1036,460.72a26.75,26.75,0,0,1-15.82,5q-8.88,0-14.35-5.57t-5.47-15.82a42.63,42.63,0,0,1,3.82-17.82,33.46,33.46,0,0,1,10.69-13.47,25.93,25.93,0,0,1,15.74-5,20.23,20.23,0,0,1,14.69,5.66q5.82,5.64,5.82,16.08A40.25,40.25,0,0,1,1047.12,447.34Z"/><path class="cls-1" d="M1127.09,408.74h21.56l3.47-20h-21.38l4.17-23.82H1110.4l-4.17,23.82h-11.65l-3.48,20h11.47l-8.17,46.42a48,48,0,0,0-.69,8.17q0,21.74,26.08,21.74h15.47l3.65-20.52h-11.47c-3.13,0-5.37-.49-6.7-1.48s-2-2.63-2-4.95a17.22,17.22,0,0,1,.18-2.79Z"/><polygon class="cls-1" points="553.72 212.96 464.12 211.84 480.26 228.41 401.27 285.14 357.3 243.06 247.88 338.16 353.35 288.25 395.24 328.96 553.72 212.96"/><polygon class="cls-1" points="359.83 312.19 372.67 485.3 438.1 312.19 393.66 347.21 359.83 312.19"/></svg>